<svg width="257" height="405" viewBox="0 0 257 405" fill="none" xmlns="http://www.w3.org/2000/svg">
<g clip-path="url(#clip0_291_2)">
<path d="M172.279 400.518L162.935 400.517L158.49 364.473L172.281 364.474L172.279 400.518Z" fill="#F7F0E8"/>
<path d="M140.264 400.306C139.973 400.796 139.819 402.377 139.819 402.947C139.819 404.699 141.239 406.119 142.991 406.119H171.93C173.125 406.119 174.094 405.15 174.094 403.955V402.75C174.094 402.75 175.525 399.129 172.578 394.666C172.578 394.666 168.915 398.161 163.441 392.687L161.827 389.763L150.142 398.308L143.666 399.105C142.249 399.28 140.993 399.078 140.264 400.306Z" fill="#3E7CB1"/>
<path d="M130.411 400.518L121.067 400.517L116.621 364.473L130.413 364.474L130.411 400.518Z" fill="#F7F0E8"/>
<path d="M98.3957 400.306C98.1047 400.796 97.9512 402.377 97.9512 402.947C97.9512 404.699 99.3711 406.119 101.123 406.119H130.062C131.257 406.119 132.225 405.15 132.225 403.955V402.75C132.225 402.75 133.657 399.129 130.709 394.666C130.709 394.666 127.046 398.161 121.573 392.687L119.958 389.763L108.274 398.308L101.798 399.105C100.381 399.28 99.1245 399.078 98.3957 400.306Z" fill="#3E7CB1"/>
<path d="M173.082 174.391L181.782 196.685L174.985 374.761H155.954L138.826 214.085L134.748 375.305L116.261 374.761L96.142 195.869L109.464 179.829L173.082 174.391Z" fill="#3E7CB1"/>
<path d="M132.029 47.9707L154.866 46.3395L161.935 57.7581L183.141 63.7393L175.257 118.929L183.685 201.307C183.685 201.307 153.235 196.957 151.06 205.657C148.885 214.356 95.5983 196.957 95.5983 196.957L113.814 140.679L112.182 96.6358L107.289 71.0798L129.582 60.7487L132.029 47.9707Z" fill="#F7F0E8"/>
<path d="M121.698 64.283C121.698 64.283 103.5 64.0112 101.044 71.6236C98.5889 79.236 90.4327 131.979 90.4327 131.979L84.1796 155.088L112.182 141.223L106.201 131.994L125.776 94.4608L121.698 64.283Z" fill="#F7F0E8"/>
<path d="M132.831 148.835C135.84 148.838 138.637 147.104 139.807 144.332C140.692 142.235 140.609 140.224 139.947 138.499C140.16 138.411 140.371 138.319 140.589 138.241C140.269 138.111 139.957 137.964 139.646 137.818C138.562 135.657 136.484 134.089 134.009 133.709C130.943 130.424 129.058 126.024 129.039 121.181C128.998 111.199 137.095 102.862 147.074 102.622C147.152 102.621 147.231 102.619 147.309 102.618C151.778 102.567 155.831 105.066 158.095 108.919C159.416 111.167 161.857 112.676 164.654 112.676C166.795 112.676 168.726 111.791 170.107 110.367C173.115 107.265 176.882 104.957 181.145 104.248C183.944 103.783 186.842 103.608 189.806 103.755C210.099 104.764 227.557 122.749 227.991 143.062C228.473 165.687 210.278 184.179 187.763 184.179C176.048 184.179 165.507 179.169 158.156 171.177C154.892 167.629 150.319 165.641 145.498 165.691C145.449 165.691 145.4 165.691 145.351 165.691C137.543 165.691 131.214 159.362 131.214 151.554C131.214 151.121 131.235 150.693 131.275 150.271C131.351 149.481 132.038 148.834 132.831 148.835Z" fill="#FF8552"/>
<path d="M199.725 136.873L64.333 111.317L63.7892 121.104L198.094 153.185L199.725 136.873Z" fill="#FF8552"/>
<path d="M65.9642 112.948L64.333 111.317C64.333 111.317 57.2643 108.054 57.2643 107.511C57.2643 107.17 46.8263 103.635 39.0169 101.037C34.6554 99.5863 30.0495 102.457 29.4284 107.011L28.4498 114.188C27.8646 118.479 31.1024 122.342 35.4298 122.515L54.5456 123.279L63.7892 121.104L65.9642 112.948Z" fill="#FF8552"/>
<path d="M199.453 139.863L199.776 138.509L64.2974 112.608L64.0611 114.307L199.453 139.863Z" fill="#2D2D2A"/>
<path d="M199.143 142.436L199.453 140.951L64.15 115.289L64.0611 117.026L199.143 142.436Z" fill="#2D2D2A"/>
<path d="M198.833 145.518L198.91 143.126L64.0439 117.241L64.0611 118.657L198.833 145.518Z" fill="#2D2D2A"/>
<path d="M198.471 149.098L198.366 146.932L63.8471 119.193L63.7314 119.724L198.471 149.098Z" fill="#2D2D2A"/>
<path d="M198.469 151.269L198.366 149.651L64.0494 120.09L63.9289 120.62L198.469 151.269Z" fill="#2D2D2A"/>
<path d="M120.67 60.8162L127.407 57.0859L130.329 116.754L129.31 124.095C129.31 124.095 112.302 77.1961 120.67 60.8162Z" fill="#2D2D2A"/>
<path d="M143.72 42.2614C153.029 42.2614 160.576 34.7147 160.576 25.4053C160.576 16.096 153.029 8.54923 143.72 8.54923C134.41 8.54923 126.864 16.096 126.864 25.4053C126.864 34.7147 134.41 42.2614 143.72 42.2614Z" fill="#F7F0E8"/>
<path d="M129.31 35.4646L133.34 38.6815L128.767 21.3272C128.767 21.3272 141.545 21.0554 142.632 13.9867C142.632 13.9867 152.691 13.7148 155.41 13.7148C158.129 13.7148 159.356 31.7042 159.356 31.7042C159.356 31.7042 164.654 16.9773 159.216 9.36485C153.779 1.75243 155.682 6.37426 154.595 3.65554C153.507 0.936824 142.36 -1.56355 135.292 1.20869C128.223 3.98093 127.951 7.93271 125.776 7.9691C123.601 8.00549 115.989 18.8804 123.057 27.5803C130.126 36.2802 129.31 35.4646 129.31 35.4646Z" fill="#3E7CB1"/>
<path d="M180.807 146.078C182.805 144.484 184.277 142.57 185.107 140.679L205.099 126.695L198.166 117.377L178.633 132.566C176.605 132.955 174.412 133.965 172.414 135.56C167.85 139.201 166.029 144.508 168.346 147.413C170.664 150.317 176.243 149.72 180.807 146.078Z" fill="#F7F0E8"/>
<path d="M104.214 124.806C102.731 126.888 101.842 129.133 101.565 131.179L86.1892 150.122L95.4171 157.175L110.02 137.2C111.863 136.268 113.693 134.693 115.175 132.611C118.562 127.854 118.854 122.251 115.827 120.096C112.8 117.941 107.601 120.05 104.214 124.806Z" fill="#F7F0E8"/>
<path d="M174.441 67.2736C174.441 67.2736 179.335 59.1175 184.229 64.0111C188.101 67.8835 209.337 92.5245 218.033 102.641C220.43 105.431 221.747 108.985 221.747 112.664C221.747 118.354 218.605 123.58 213.58 126.248L186.404 140.679L178.791 129.26L202.172 112.404L166.285 92.8296L174.441 67.2736Z" fill="#F7F0E8"/>
<path d="M88.5082 142.436L84.1796 155.088L96.6857 161.613L106.201 155.088L112.182 141.223L94.5108 136.057" fill="#F7F0E8"/>
</g>
<defs>
<clipPath id="clip0_291_2">
<rect width="257" height="407" fill="white"/>
</clipPath>
</defs>
</svg>
